<svg width="39" height="39" viewBox="0 0 39 39" fill="none" xmlns="http://www.w3.org/2000/svg">
<g id="imgPerson">
<rect id="Rectangle 105" width="39" height="39" rx="3" fill="#8849CF"/>
<path id="Vector" d="M19.5 19.5C20.4946 19.5 21.4484 19.1049 22.1517 18.4017C22.8549 17.6984 23.25 16.7446 23.25 15.75C23.25 14.7554 22.8549 13.8016 22.1517 13.0983C21.4484 12.3951 20.4946 12 19.5 12C18.5054 12 17.5516 12.3951 16.8483 13.0983C16.1451 13.8016 15.75 14.7554 15.75 15.75C15.75 16.7446 16.1451 17.6984 16.8483 18.4017C17.5516 19.1049 18.5054 19.5 19.5 19.5ZM22 15.75C22 16.413 21.7366 17.0489 21.2678 17.5178C20.7989 17.9866 20.163 18.25 19.5 18.25C18.837 18.25 18.2011 17.9866 17.7322 17.5178C17.2634 17.0489 17 16.413 17 15.75C17 15.087 17.2634 14.4511 17.7322 13.9822C18.2011 13.5134 18.837 13.25 19.5 13.25C20.163 13.25 20.7989 13.5134 21.2678 13.9822C21.7366 14.4511 22 15.087 22 15.75ZM27 25.75C27 27 25.75 27 25.75 27H13.25C13.25 27 12 27 12 25.75C12 24.5 13.25 20.75 19.5 20.75C25.75 20.75 27 24.5 27 25.75ZM25.75 25.745C25.7487 25.4375 25.5575 24.5125 24.71 23.665C23.895 22.85 22.3612 22 19.5 22C16.6375 22 15.105 22.85 14.29 23.665C13.4425 24.5125 13.2525 25.4375 13.25 25.745H25.75Z" fill="#FBFBFB"/>
</g>
</svg>
